<svg width="44" height="44" viewBox="0 0 44 44" fill="none" xmlns="http://www.w3.org/2000/svg">
<circle cx="21.6405" cy="21.8081" r="21.6405" fill="#D49E0C"/>
<path d="M21.6442 11.9913C16.2192 11.9913 11.8235 16.387 11.8235 21.8121V23.7007C11.8235 24.3286 11.3183 24.8338 10.6903 24.8338C10.0623 24.8338 9.55713 24.3286 9.55713 23.7007V21.8121C9.55713 15.1358 14.968 9.72499 21.6442 9.72499C28.3204 9.72499 33.7313 15.1358 33.7313 21.8121V28.6158C33.7313 30.9104 31.871 32.7707 29.5716 32.7707L24.3638 32.766C23.9719 33.4412 23.2401 33.8991 22.3996 33.8991H20.8888C19.6376 33.8991 18.6224 32.884 18.6224 31.6328C18.6224 30.3816 19.6376 29.3665 20.8888 29.3665H22.3996C23.2401 29.3665 23.9719 29.8245 24.3638 30.4997L29.5764 30.5044C30.6198 30.5044 31.465 29.6592 31.465 28.6158V21.8121C31.465 16.387 27.0692 11.9913 21.6442 11.9913ZM16.3561 19.5457H17.1116C17.9473 19.5457 18.6224 20.2209 18.6224 21.0566V26.3447C18.6224 27.1804 17.9473 27.8556 17.1116 27.8556H16.3561C14.6894 27.8556 13.3343 26.5005 13.3343 24.8338V22.5675C13.3343 20.9008 14.6894 19.5457 16.3561 19.5457ZM26.9323 19.5457C28.599 19.5457 29.9541 20.9008 29.9541 22.5675V24.8338C29.9541 26.5005 28.599 27.8556 26.9323 27.8556H26.1769C25.3412 27.8556 24.666 27.1804 24.666 26.3447V21.0566C24.666 20.2209 25.3412 19.5457 26.1769 19.5457H26.9323Z" fill="#0A2C4E"/>
</svg>
