<svg width="20" height="21" viewBox="0 0 20 21" fill="none" xmlns="http://www.w3.org/2000/svg">
<path d="M6.44112 1.46178C6.14035 0.735245 5.34742 0.348544 4.58964 0.555566L1.15229 1.49302C0.472635 1.68052 0 2.29768 0 3.00077C0 12.6644 7.83559 20.5 17.4992 20.5C18.2023 20.5 18.8195 20.0274 19.007 19.3477L19.9444 15.9104C20.1515 15.1526 19.7648 14.3596 19.0382 14.0589L15.2884 12.4964C14.6517 12.2308 13.9135 12.4144 13.4799 12.9496L11.9018 14.8752C9.15194 13.5745 6.92548 11.3481 5.62475 8.59818L7.55045 7.02403C8.08558 6.58655 8.26917 5.85221 8.00355 5.21552L6.44112 1.46568V1.46178Z" fill="#3C3C43" fill-opacity="0.6"/>
</svg>
