<svg width="23" height="23" viewBox="0 0 23 23" fill="none" xmlns="http://www.w3.org/2000/svg">
<path d="M18.5404 9.43619C18.5404 11.4082 17.9002 13.2298 16.8219 14.7077L22.2609 20.151C22.7979 20.6881 22.7979 21.5602 22.2609 22.0972C21.7239 22.6343 20.8517 22.6343 20.3147 22.0972L14.8757 16.6539C13.3977 17.7365 11.5761 18.3724 9.60416 18.3724C4.66777 18.3724 0.667969 14.3726 0.667969 9.43619C0.667969 4.4998 4.66777 0.5 9.60416 0.5C14.5405 0.5 18.5404 4.4998 18.5404 9.43619ZM9.60416 15.6228C10.4166 15.6228 11.2211 15.4628 11.9717 15.1519C12.7223 14.841 13.4043 14.3853 13.9787 13.8108C14.5532 13.2363 15.0089 12.5543 15.3198 11.8037C15.6307 11.0531 15.7908 10.2486 15.7908 9.43619C15.7908 8.62376 15.6307 7.81928 15.3198 7.06868C15.0089 6.31809 14.5532 5.63609 13.9787 5.06161C13.4043 4.48713 12.7223 4.03143 11.9717 3.72052C11.2211 3.40962 10.4166 3.2496 9.60416 3.2496C8.79173 3.2496 7.98725 3.40962 7.23665 3.72052C6.48606 4.03143 5.80406 4.48713 5.22958 5.06161C4.6551 5.63609 4.1994 6.31809 3.88849 7.06868C3.57759 7.81928 3.41757 8.62376 3.41757 9.43619C3.41757 10.2486 3.57759 11.0531 3.88849 11.8037C4.1994 12.5543 4.6551 13.2363 5.22958 13.8108C5.80406 14.3853 6.48606 14.841 7.23665 15.1519C7.98725 15.4628 8.79173 15.6228 9.60416 15.6228Z" fill="#D49E0C"/>
</svg>
